<svg xmlns="http://www.w3.org/2000/svg" xmlns:xlink="http://www.w3.org/1999/xlink" viewBox="0 335.4 595.3 170.7"><path fill="none" stroke="#1C2C4F" stroke-width="1.887" stroke-miterlimit="10" d="M183.8 335.4v140.3"/><path fill="#1C2C4F" d="M238.1 349.9v13.6h-1c-.3-2.6-.9-4.7-1.9-6.3-.9-1.6-2.2-2.7-3.9-3.6-1.7-.9-3.3-1.4-5.1-1.4-2 0-3.6.6-5 1.9-1.4 1.3-2 2.6-2 4.2 0 1.1.4 2.3 1.3 3.2 1.1 1.5 4.1 3.3 8.5 5.7 3.6 2 6.2 3.4 7.5 4.5 1.4 1 2.4 2.3 3.1 3.8.7 1.5 1 2.9 1 4.5 0 2.9-1.1 5.5-3.4 7.7s-5.2 3.2-8.9 3.2c-1.1 0-2.2-.1-3.2-.3-.6-.1-1.9-.4-3.8-1s-3-.9-3.5-.9-.8.1-1.1.4c-.3.3-.5.9-.6 1.8h-1v-13.3h1c.5 2.8 1.1 4.9 2 6.4.8 1.4 2.2 2.6 3.9 3.4 1.8.9 3.6 1.4 5.7 1.4 2.4 0 4.3-.6 5.7-1.9 1.4-1.3 2.1-2.8 2.1-4.5 0-.9-.3-2-.8-2.9-.5-.9-1.4-1.9-2.5-2.7-.7-.6-2.8-1.8-6.2-3.6-3.3-1.9-5.7-3.3-7.1-4.5-1.5-1.1-2.5-2.4-3.2-3.6-.7-1.4-1-2.8-1-4.5 0-2.8 1-5.2 3.2-7.3 2.2-2 4.9-3 8.2-3 2.1 0 4.3.5 6.6 1.6 1 .5 1.9.7 2.3.7.5 0 .9-.1 1.3-.4.3-.3.5-.9.7-1.8h1.1v-.5zm39.9.9l.4 9.2h-1c-.2-1.7-.5-2.8-.8-3.4-.6-1.1-1.4-2-2.4-2.5-.9-.5-2.3-.8-3.9-.8h-5.5v29.9c0 2.4.2 3.9.7 4.5.7.8 1.9 1.3 3.3 1.3h1.4v1h-16.6v-1h1.4c1.7 0 2.8-.5 3.5-1.5.4-.6.6-2 .6-4.2v-29.9h-4.7c-1.9 0-3.1.1-3.9.4-1 .4-1.9 1-2.6 2.1-.7 1-1.1 2.4-1.3 4.2h-1.1l.4-9.2H278zm42.7-.9v13.6h-1c-.3-2.6-.9-4.7-1.9-6.3s-2.2-2.7-3.9-3.6c-1.7-.9-3.3-1.4-5.1-1.4-2 0-3.6.6-5 1.9-1.4 1.3-2 2.6-2 4.2 0 1.1.4 2.3 1.3 3.2 1.1 1.5 4.1 3.3 8.5 5.7 3.6 2 6.2 3.4 7.5 4.5 1.4 1 2.4 2.3 3.1 3.8.7 1.5 1 2.9 1 4.5 0 2.9-1.1 5.5-3.4 7.7s-5.2 3.2-8.9 3.2c-1.1 0-2.2-.1-3.2-.3-.6-.1-1.9-.4-3.8-1s-3-.9-3.5-.9-.8.1-1.1.4c-.3.3-.5.9-.6 1.8h-1v-13.3h1c.5 2.8 1.1 4.9 2 6.4.8 1.4 2.1 2.6 3.9 3.4 1.8.9 3.6 1.4 5.7 1.4 2.4 0 4.3-.6 5.7-1.9 1.4-1.3 2.1-2.8 2.1-4.5 0-.9-.3-2-.8-2.9-.5-.9-1.4-1.9-2.5-2.7-.7-.6-2.8-1.8-6.2-3.6-3.3-1.9-5.7-3.3-7.1-4.5-1.5-1.1-2.5-2.4-3.2-3.6-.7-1.4-1-2.8-1-4.5 0-2.8 1-5.2 3.2-7.3 2.2-2 4.9-3 8.2-3 2.1 0 4.3.5 6.6 1.6 1 .5 1.9.7 2.3.7.5 0 .9-.1 1.3-.4.3-.3.5-.9.7-1.8h1.1v-.5zm39.9.9l.4 9.2h-1c-.2-1.7-.5-2.8-.8-3.4-.6-1.1-1.4-2-2.4-2.5-.9-.5-2.3-.8-3.9-.8h-5.5v29.9c0 2.4.3 3.9.7 4.5.7.8 1.9 1.3 3.3 1.3h1.4v1h-16.6v-1h1.4c1.7 0 2.8-.5 3.5-1.5.4-.6.6-2 .6-4.2v-29.9H337c-1.8 0-3.1.1-3.9.4-1 .4-1.9 1-2.6 2.1-.7 1-1.1 2.4-1.3 4.2h-1.1l.4-9.2h32.1zm20.1 38.1v1h-16.8v-1h1.4c1.6 0 2.8-.5 3.5-1.5.4-.6.7-2.1.7-4.5v-25.2c0-2-.1-3.3-.4-4-.2-.5-.6-.9-1.1-1.3-.8-.4-1.8-.7-2.6-.7H364v-1h16.8v1h-1.5c-1.6 0-2.7.5-3.4 1.5-.5.6-.7 2.1-.7 4.5V383c0 2 .1 3.3.4 4 .2.5.6.9 1.3 1.3.8.4 1.7.7 2.6.7h1.3v-.1zm35.6-38.1l.4 9.2h-1.1c-.2-1.7-.5-2.8-.8-3.4-.6-1.1-1.4-2-2.4-2.5-.9-.5-2.3-.8-3.9-.8H403v29.9c0 2.4.2 3.9.7 4.5.7.8 1.9 1.3 3.3 1.3h1.4v1h-16.6v-1h1.4c1.7 0 2.8-.5 3.5-1.5.4-.6.6-2 .6-4.2v-29.9h-4.7c-1.9 0-3.1.1-3.9.4-1 .4-1.9 1-2.6 2.1-.7 1-1.1 2.4-1.3 4.2h-1.1l.4-9.2h32.2zm14.1 18.1h18.1v-11.2c0-2-.1-3.3-.4-4-.2-.5-.6-.9-1.3-1.3-.8-.4-1.7-.7-2.6-.7h-1.4v-1h16.7v1h-1.4c-.9 0-1.8.2-2.6.6-.6.3-1 .7-1.3 1.4s-.3 1.9-.3 3.9V383c0 2 .1 3.3.4 4 .2.5.6.9 1.1 1.3.8.4 1.8.7 2.6.7h1.4v1h-16.7v-1h1.4c1.6 0 2.7-.5 3.4-1.5.5-.6.7-2.1.7-4.5v-11.9h-18.1V383c0 2 .1 3.3.4 4 .2.5.6.9 1.3 1.3.8.4 1.7.7 2.6.7h1.5v1h-16.8v-1h1.4c1.6 0 2.8-.5 3.5-1.5.4-.6.7-2.1.7-4.5v-25.2c0-2-.1-3.3-.4-4-.2-.5-.6-.9-1.1-1.3-.8-.4-1.8-.7-2.6-.7h-1.4v-1H436v1h-1.5c-.9 0-1.8.2-2.6.6-.6.3-1 .7-1.3 1.4s-.3 1.9-.3 3.9V369h.1zm48.6 20v1h-16.8v-1h1.4c1.6 0 2.8-.5 3.5-1.5.4-.6.7-2.1.7-4.5v-25.2c0-2-.1-3.3-.4-4-.2-.5-.6-.9-1.1-1.3-.8-.4-1.8-.7-2.6-.7h-1.4v-1h16.8v1h-1.5c-1.6 0-2.7.5-3.4 1.5-.5.6-.7 2.1-.7 4.5V383c0 2 .1 3.3.4 4 .2.5.6.9 1.3 1.3.8.4 1.7.7 2.6.7h1.3v-.1zm27.7-14.1L500 359l-6.8 15.8h13.5zm.7 2h-15.1l-2.6 6.2c-.6 1.6-.9 2.6-.9 3.4 0 .6.3 1.1.8 1.6.5.4 1.8.7 3.6.8v1h-12.3v-1c1.7-.3 2.7-.6 3.1-1.1.9-.9 2.1-2.8 3.2-5.6l13.8-32.2h1l13.6 32.6c1.1 2.6 2.1 4.3 3 5.1.9.7 2.2 1.3 3.8 1.4v1H507v-1c1.6-.1 2.6-.3 3.1-.8.5-.4.8-.9.8-1.6 0-.8-.4-2.2-1.1-4.1l-2.4-5.7zm14.9-26h10.6l23.9 29.4v-22.6c0-2.4-.3-4-.8-4.5-.7-.8-1.9-1.3-3.3-1.3h-1.4v-1h13.6v1h-1.4c-1.7 0-2.8.5-3.5 1.5-.4.6-.6 2-.6 4.2v33h-1l-25.8-31.6V383c0 2.4.3 3.9.7 4.5.7.8 1.9 1.3 3.3 1.3h1.4v1h-13.6v-1h1.4c1.7 0 2.8-.5 3.5-1.5.4-.6.6-2 .6-4.2v-27.2c-1.1-1.4-2-2.2-2.6-2.6-.6-.4-1.5-.8-2.6-1.1-.5-.2-1.4-.3-2.5-.3v-1h.1zm70.4-.9v13.6h-1c-.3-2.6-.9-4.7-1.9-6.3-.9-1.6-2.2-2.7-3.9-3.6-1.7-.9-3.3-1.4-5.1-1.4-2 0-3.6.6-5 1.9-1.3 1.3-2 2.6-2 4.2 0 1.1.4 2.3 1.3 3.2 1.1 1.5 4.1 3.3 8.5 5.7 3.6 2 6.2 3.4 7.5 4.5 1.4 1 2.4 2.3 3.1 3.8.7 1.5 1 2.9 1 4.5 0 2.9-1.1 5.5-3.4 7.7s-5.2 3.2-8.9 3.2c-1.1 0-2.2-.1-3.2-.3-.6-.1-1.9-.4-3.8-1s-3-.9-3.5-.9-.8.1-1.1.4c-.3.3-.5.9-.6 1.8h-1v-13.3h1c.5 2.8 1.1 4.9 2 6.4.8 1.4 2.1 2.6 3.9 3.4 1.8.9 3.6 1.4 5.7 1.4 2.4 0 4.3-.6 5.7-1.9 1.4-1.3 2.1-2.8 2.1-4.5 0-.9-.3-2-.8-2.9-.5-.9-1.4-1.9-2.5-2.7-.7-.6-2.8-1.8-6.2-3.6-3.3-1.9-5.7-3.3-7.1-4.5-1.5-1.1-2.5-2.4-3.2-3.6-.7-1.4-1.1-2.8-1.1-4.5 0-2.8 1-5.2 3.2-7.3 2.2-2 4.9-3 8.2-3 2.1 0 4.3.5 6.6 1.6 1 .5 1.9.7 2.3.7.5 0 .9-.1 1.3-.4.3-.3.5-.9.7-1.8h1.3v-.5zm-346.1 70.3l.9 13.3h-.9c-1.1-4-2.9-6.9-5.1-8.7-2.2-1.8-4.9-2.6-7.9-2.6-2.6 0-4.9.6-7 2s-3.8 3.4-4.9 6.4c-1.3 2.9-1.8 6.5-1.8 10.7 0 3.5.5 6.6 1.7 9.2 1.1 2.6 2.8 4.6 5.1 5.9 2.3 1.4 4.9 2.1 7.8 2.1 2.5 0 4.8-.5 6.7-1.7 2-1 4.1-3.2 6.4-6.5l.9.6c-2 3.4-4.3 6-6.9 7.6-2.6 1.7-5.7 2.4-9.3 2.4-6.5 0-11.5-2.4-15-7.2-2.6-3.5-4-7.8-4-12.6 0-3.9.8-7.5 2.6-10.7 1.8-3.2 4.2-5.8 7.2-7.6 3-1.8 6.5-2.7 10-2.7 2.8 0 5.6.7 8.3 2.1.8.4 1.4.6 1.8.6.5 0 .9-.2 1.4-.5.5-.5.8-1.3 1-2.2 0 .1 1 .1 1 .1zm24.9 2.1c-3.5 0-6.3 1.3-8.4 3.9-2.6 3.2-4 7.9-4 14.2 0 6.4 1.4 11.4 4.1 14.8 2.1 2.6 4.9 4 8.3 4 3.6 0 6.7-1.5 9.1-4.3 2.4-2.8 3.5-7.4 3.5-13.6 0-6.7-1.4-11.7-4-15-2-2.6-4.9-4-8.6-4m.5-2.1c5.1 0 9.5 2 13.1 5.8 3.8 3.9 5.6 8.7 5.6 14.5 0 5.9-1.9 10.8-5.6 14.8-3.8 4-8.2 5.9-13.6 5.9s-9.9-1.9-13.6-5.7c-3.6-3.9-5.5-8.8-5.5-14.9 0-6.3 2.1-11.3 6.4-15.2 3.7-3.5 8.1-5.2 13.2-5.2m54.8 29.2l.9.2-3.3 10.6h-30.2v-1h1.5c1.7 0 2.8-.5 3.5-1.7.4-.6.6-2.1.6-4.3V428c0-2.4-.3-4-.8-4.6-.7-.8-1.9-1.3-3.3-1.3h-1.5v-1h17.7v1c-2.1 0-3.5.2-4.4.6-.8.4-1.4.9-1.7 1.6-.3.6-.4 2.1-.4 4.4v24.6c0 1.6.1 2.7.4 3.3.2.4.6.7 1 .9.5.2 2 .3 4.5.3h2.8c3 0 5.1-.2 6.4-.6s2.3-1.3 3.3-2.4c1-1.1 2.1-2.9 3-5.4m36.1 0l.9.2-3.3 10.6h-30.2v-1h1.5c1.7 0 2.8-.5 3.5-1.7.4-.6.6-2.1.6-4.3V428c0-2.4-.3-4-.8-4.6-.7-.8-1.9-1.3-3.3-1.3h-1.5v-1H348v1c-2.1 0-3.5.2-4.4.6-.8.4-1.5.9-1.7 1.6-.3.6-.4 2.1-.4 4.4v24.6c0 1.6.1 2.7.4 3.3.2.4.6.7 1 .9.5.2 2 .3 4.5.3h2.8c3 0 5.1-.2 6.4-.6s2.3-1.3 3.3-2.4c1-1.1 2.1-2.9 3-5.4m14.6-26.2v15.5h8.5c2.2 0 3.8-.3 4.5-1 1-.8 1.6-2.4 1.7-4.7h1v13.7h-1c-.3-1.9-.5-3.1-.8-3.6-.3-.6-.9-1.3-1.7-1.6-.8-.4-2-.6-3.6-.6h-8.5v12.9c0 1.8.1 2.8.2 3.1.1.4.4.6.8.9.4.2 1.1.3 2.2.3h6.7c2.2 0 3.9-.1 4.8-.4 1-.3 2-.9 2.9-1.8 1.1-1.1 2.4-3 3.6-5.4h1.1l-3.3 9.8h-30.1v-1h1.4c.9 0 1.8-.2 2.6-.6.6-.3 1-.7 1.3-1.4.2-.6.3-1.9.3-3.8v-25.6c0-2.5-.2-4.1-.7-4.6-.7-.7-1.9-1.1-3.4-1.1h-1.4v-1h30.1l.4 8.5H396c-.4-2.1-.8-3.4-1.4-4.3-.5-.7-1.3-1.4-2.2-1.8-.7-.3-2.1-.4-4.1-.4h-10.8zm59.9-3l1 12.4h-1c-1-3.1-2.3-5.4-4-7-2.3-2.3-5.3-3.3-9-3.3-5 0-8.8 2-11.4 5.9-2.2 3.3-3.2 7.3-3.2 11.9 0 3.8.7 7.2 2.2 10.2 1.5 3.1 3.3 5.3 5.6 6.8s4.7 2.2 7.2 2.2c1.5 0 2.8-.2 4.2-.5 1.4-.3 2.6-.9 3.9-1.7v-11.4c0-2-.1-3.2-.4-3.9-.3-.6-.7-1-1.4-1.4-.6-.3-1.8-.5-3.3-.5v-1H443v1h-.7c-1.5 0-2.5.5-3.1 1.5-.4.7-.6 2.1-.6 4.2v12c-2.2 1.1-4.4 2.1-6.6 2.6-2.2.5-4.6.8-7.2.8-7.5 0-13.2-2.4-17.2-7.3-2.9-3.6-4.4-7.8-4.4-12.6 0-3.4.8-6.8 2.5-9.9 2-3.8 4.7-6.7 8-8.7 2.8-1.7 6.3-2.5 10.1-2.5 1.5 0 2.7.1 3.9.3 1.1.2 2.8.7 4.9 1.6 1 .4 1.8.6 2.2.6.3 0 .7-.2.9-.5.3-.3.4-1 .5-2h1.3v.2zm18.7 3v15.5h8.5c2.2 0 3.8-.3 4.5-1 1-.8 1.6-2.4 1.7-4.7h1v13.7h-1c-.3-1.9-.5-3.1-.8-3.6-.3-.6-.9-1.3-1.7-1.6-.8-.4-2-.6-3.6-.6h-8.5v12.9c0 1.8.1 2.8.2 3.1.1.4.4.6.8.9.4.2 1.1.3 2.2.3h6.7c2.2 0 3.9-.1 4.8-.4 1-.3 2-.9 2.9-1.8 1.1-1.1 2.4-3 3.6-5.4h1.1l-3.3 9.8h-30.1v-1h1.4c.9 0 1.8-.2 2.6-.6.6-.3 1-.7 1.3-1.4s.3-1.9.3-3.8v-25.6c0-2.5-.2-4.1-.7-4.6-.7-.7-1.9-1.1-3.4-1.1h-1.4v-1h30.1l.4 8.5h-1.1c-.4-2.1-.8-3.4-1.4-4.3-.5-.7-1.3-1.4-2.2-1.8-.7-.3-2.1-.4-4.1-.4h-10.8z"/><path fill="#B1B3B5" d="M78.9 335.9H21.6v53.6c0 6.8 2.2 28.4 21.4 54.6 18 24.7 36 34.2 36 34.2s18-9.5 36-34.2c19.2-26.3 21.4-47.9 21.4-54.6v-53.6H78.9z"/><path fill="#002458" d="M133.9 338.3v51.2c0 6.3-2 27.4-20.9 53.2-8.9 12.2-17.7 20.5-24.3 25.9-4.6 3.6-8 5.9-9.7 7-1.7-1-5.2-3.2-9.7-7-6.6-5.3-15.4-13.8-24.3-25.9-18.9-25.9-21-46.9-20.9-53.2v-51.2h109.8z"/><path fill="#FFDE4F" d="M29.1 366.9c0-1.5 1.1-2.7 2.7-2.7 1.5 0 2.7 1.3 2.7 2.7s-1.1 2.7-2.7 2.7c-1.5.1-2.7-1.1-2.7-2.7m0 23.2c0-1.5 1.1-2.7 2.7-2.7 1.5 0 2.7 1.3 2.7 2.7 0 1.5-1.1 2.7-2.7 2.7-1.5 0-2.7-1.3-2.7-2.7m0-43.8c0-1.5 1.1-2.7 2.7-2.7 1.5 0 2.7 1.1 2.7 2.7 0 1.5-1.1 2.7-2.7 2.7-1.5-.1-2.7-1.2-2.7-2.7m47.2 118.8c0-1.5 1.3-2.7 2.7-2.7 1.5 0 2.7 1.3 2.7 2.7s-1.1 2.7-2.7 2.7-2.7-1.1-2.7-2.7"/><path fill="#B1B3B5" d="M78.9 354.2h38.6v35.3c0 .7.1 2.5 0 4.9-.1 2.4-.6 5.5-1.5 9.4-1.8 7.6-5.2 18-13.2 29.6C92.1 449 81.9 455 79 456.8c-3-1.8-13-7.8-23.8-23.4-8-11.6-11.6-22-13.2-29.6-.8-3.9-1.4-6.9-1.5-9.4-.1-2.4 0-4.2 0-4.9v-35.3h38.4z"/><path fill="#D0D2D3" d="M115.2 394.4c-.1 2.3-.6 5.3-1.5 9-1.7 7.4-5.1 17.6-12.9 28.9-9.4 13.6-18.2 19.6-22 22-3.8-2.3-12.5-8.4-22-22-7.8-11.4-11.1-21.6-12.8-29-.8-3.6-1.3-6.6-1.5-9-.1-2.4 0-4.1 0-4.8v-33.2h72.8v33.2c-.1.9 0 2.5-.1 4.9"/><defs><path id="a" d="M77.8 356.4H41.4v33.2c0 .7-.1 2.4 0 4.8.1 2.3.6 5.3 1.5 9 1.7 7.4 5.1 17.5 12.9 28.9 9.4 13.6 18.2 19.6 22 22 3.8-2.3 12.5-8.4 22-22 7.8-11.3 11.3-21.5 12.9-28.9.8-3.6 1.3-6.6 1.5-9 .1-2.4 0-4.1 0-4.8v-33.2H77.8z"/></defs><clipPath id="b"><use xlink:href="#a" overflow="visible"/></clipPath><path clip-path="url(#b)" fill="#E01837" d="M68.2 354h19.1v33.4h42v19.2h-42v50.7H68.2v-50.7H26.3v-19.2h41.9z"/><path fill="#FFDE4F" d="M32.8 412.8c0-1.5 1.3-2.7 2.7-2.7 1.5 0 2.7 1.3 2.7 2.7s-1.1 2.7-2.7 2.7c-1.4 0-2.7-1.2-2.7-2.7m9.6 19.9c0-1.5 1.1-2.7 2.7-2.7 1.5 0 2.7 1.1 2.7 2.7 0 1.5-1.3 2.7-2.7 2.7-1.4-.1-2.7-1.2-2.7-2.7m14 18.1c0-1.5 1.1-2.7 2.7-2.7 1.5 0 2.7 1.1 2.7 2.7 0 1.5-1.3 2.7-2.7 2.7-1.6 0-2.7-1.3-2.7-2.7m3.8-104.5c0-1.5 1.3-2.7 2.7-2.7 1.5 0 2.7 1.1 2.7 2.7 0 1.5-1.1 2.7-2.7 2.7-1.5-.1-2.7-1.2-2.7-2.7m62.2 20.6c0-1.5 1.1-2.7 2.7-2.7 1.5 0 2.7 1.3 2.7 2.7s-1.1 2.7-2.7 2.7c-1.6.1-2.7-1.1-2.7-2.7m0 23.2c0-1.5 1.1-2.7 2.7-2.7 1.5 0 2.7 1.3 2.7 2.7 0 1.5-1.1 2.7-2.7 2.7s-2.7-1.3-2.7-2.7m0-43.8c0-1.5 1.1-2.7 2.7-2.7 1.5 0 2.7 1.1 2.7 2.7 0 1.5-1.1 2.7-2.7 2.7-1.6-.1-2.7-1.2-2.7-2.7m-4.9 66.5c0-1.5 1.1-2.7 2.7-2.7 1.5 0 2.7 1.3 2.7 2.7s-1.1 2.7-2.7 2.7-2.7-1.2-2.7-2.7m-9.6 19.9c0-1.5 1.1-2.7 2.7-2.7 1.5 0 2.7 1.1 2.7 2.7 0 1.5-1.3 2.7-2.7 2.7-1.6-.1-2.7-1.2-2.7-2.7m-14 18.1c0-1.5 1.3-2.7 2.7-2.7 1.5 0 2.7 1.1 2.7 2.7 0 1.5-1.1 2.7-2.7 2.7-1.4 0-2.7-1.3-2.7-2.7m-3.7-104.5c0-1.5 1.3-2.7 2.7-2.7s2.7 1.1 2.7 2.7c0 1.5-1.1 2.7-2.7 2.7-1.6-.1-2.7-1.2-2.7-2.7"/><path fill="#B1B3B5" d="M77.8 484c14.9 0 21.8-3.3 23.7-4.2 1.9-.8 11.9-5.2 8.2-6.5-3.8-1.4-2-5 .6-7.3s5.9-2.1 15.1-7.1c9.2-4.9 16.2-17.5 16.2-17.5s1.9.5 1 6.2c-.8 5.5-2.3 8.7-1.6 13.4 0 0 6.8.4 14.5-3.3 0 0 .7 3.9-6.9 9.8-7.7 5.9-15.1 9.6-15.2 10.8-.1 1.4 2.6 4 .4 6.7-2.3 2.6-10.7 11.1-29.8 17-13.6 4.3-26.2 4-26.2 4s-12.6.3-26.2-4c-19.1-5.9-27.5-14.4-29.8-17-2.3-2.6.5-5.3.4-6.7-.1-1.4-7.5-4.9-15.2-10.8s-6.9-9.8-6.9-9.8c7.7 3.8 14.5 3.3 14.5 3.3.6-4.8-.8-7.8-1.6-13.4-.8-5.5 1-6.2 1-6.2s7 12.6 16.2 17.5 12.4 4.8 15.1 7.1c2.6 2.3 4.4 5.9.6 7.3-3.8 1.4 6.4 5.7 8.2 6.5 1.9.9 8.7 4.2 23.7 4.2"/><path fill="#002458" d="M131.7 481.2c.1.3.2.5.3.8.2.7.2 1-.1 1.5-2 2.3-10.1 10.4-28.7 16.3-6.6 2.1-12.9 3-17.6 3.4-2.9.3-6.5.4-7.8.4-1.4 0-4.9-.1-7.8-.4-4.7-.4-11.1-1.5-17.6-3.4-18.7-5.8-26.7-14-28.7-16.3-.3-.4-.4-.7-.1-1.5.1-.3.2-.5.3-.8 0 0 2.9-3.2 4.3-7.1.6-1.9 1.3-3.6 3-3.9 1.7-.2 4.5 2.8 7.9 5.2 3.4 2.4 17.4 8.1 21.5 9.1 4 .9 9.6 1.9 17.3 1.9 7.6 0 13.2-.8 17.3-1.9 4.1-.9 18-6.7 21.5-9.1 3.4-2.4 6.3-5.3 7.9-5.2 1.8.2 2.4 2 3 3.9 1.2 3.9 4.1 7.1 4.1 7.1"/><path fill="#002458" d="M25 476.3c.6-.4 1.4-2.2 2.4-4.7 1.1-2.5 3.1-5.2 5.9-5.2 2.7 0 6.6 2.7 8.9 4.6 2.2 1.9 3.3 0 3.3-.1 0 0 .1-.1 0-.3-.1-.6-.8-1.8-1.9-2.7-.4-.4-.9-.7-1.7-1-.7-.3-1.7-.7-2.7-1-2.4-.9-5.6-2.1-10.3-4.7-5-2.7-9.3-7.4-12.3-11.3-.5-.6-.9-1.3-1.4-1.8.4 2.3.8 4.2 1.3 6 .4 2.2.6 4.5.3 7.2l-.3 2s-3.9.2-6.8-.1c-1.6-.2-3.3-.5-5.3-1.1.8 1 2.1 2.3 3.9 3.6 3.8 2.9 7.5 5.3 10.2 7.1 1.5.9 2.7 1.8 3.5 2.4.4.3.8.7 1.3 1 1 .4 1.7.1 1.7.1m105.4 0c-.6-.4-1.4-2.2-2.4-4.7-1.1-2.5-3.1-5.2-5.9-5.2-2.7 0-6.6 2.7-8.9 4.6-2.2 1.9-3.3 0-3.4-.1 0 0-.1-.1 0-.3.1-.6.8-1.8 1.9-2.7.4-.4.9-.7 1.7-1 .7-.3 1.7-.7 2.7-1 2.4-.9 5.6-2.1 10.3-4.7 5-2.7 9.3-7.4 12.3-11.3.5-.6.9-1.3 1.4-1.8-.4 2.3-.8 4.2-1.1 6-.4 2.2-.6 4.5-.3 7.2l.3 2s3.9.2 6.8-.1c1.6-.2 3.3-.5 5.3-1.1-.8 1-2.1 2.3-3.9 3.6-3.8 2.9-7.5 5.3-10.2 7.1-1.5.9-2.7 1.8-3.5 2.4-.4.3-.8.7-1.3 1-.9.4-1.8.1-1.8.1"/><path fill="#002458" d="M113.2 474.6c1.8.2 6.6-3.6 8-5 1.9-1.7.6-2.3-.6-1.5s-7.6 4.7-8 5.4c-.5.8-.1 1 .6 1.1m-71 0c-1.8.2-6.6-3.6-8-5-1.9-1.7-.6-2.3.6-1.5s7.6 4.7 8 5.4c.6.8.2 1-.6 1.1"/><path fill="#FFDE4F" d="M46.2 488.9c-.8 1.8-2.5 2.2-3.9 1.6-2.2-1-1.8-3.1-1.1-4.6.8-1.7 2.4-2.3 3.9-1.6 1.6.9 2.1 2.4 1.1 4.6m1.5.5c1.1-2.4.4-4.9-2.1-6-2.3-1.1-4.8-.5-6 2.1-1.1 2.4-.4 4.9 2.1 6 2.5 1.3 4.9.4 6-2.1m9.3.4c.2-.4.2-.6.5-1.5l-1.5-.5c-.2.8-.3 1-.5 1.5l-1.5 4-2.1-6.8-1.5-.5c-.2.8-.3.9-.5 1.5l-2 5.3c-.2.4-.2.6-.5 1.5l1.5.5c.2-.8.3-1 .4-1.5l1.7-4.6 2.3 7.7.9.3c.2-.8.3-1 .5-1.5l2.3-5.4zm2.3 3.7l2.1.5c.5.1.8.3.9.3l.2-1-3-.7.6-2.4 2.5.6c.3.1.8.2.9.4l.2-1.3-4.9-1.3c-.1.8-.2 1-.3 1.5l-1.4 5.5c-.1.4-.1.6-.4 1.5l5.3 1.4.4-1.3c-.4 0-1 0-2.6-.4-.3-.1-1-.2-1.4-.4l.9-2.9zm10.4 2.6l1.7-3 .9 3.3-2.6-.3zm2.7-4.8l-1.5-.1-4 7.5c-.2.3-.2.4-.5.8l1.6.2c.2-.4.2-.5.4-.9l.8-1.6 3.5.4.4 1.6c.1.2.2.7.3 1.1l1.7.2c-.2-.4-.3-.8-.4-1.1l-2.3-8.1zm11.3 1.5v-1.6l-1.6.1c.1.8.1 1 .1 1.6l.1 4.2-4.5-5.5-1.6.1c.1.8.1 1 .1 1.6l.2 5.6v1.6l1.6-.1c-.1-.8-.1-1-.1-1.6l-.2-4.9 5 6.3h.9c-.1-.9-.1-1-.1-1.6v-5.8zm3-.8c.3-.1.5-.1.8-.2 2.4-.4 3.8.4 4.2 2.7.3 1.7-.6 3.1-2.4 3.4-.7.1-.9.1-1.5.1l-1.1-6zm-1.6-.9c.2.8.2.9.3 1.5l.9 5.6c.1.5.1.6.2 1.5l3.2-.6c2.5-.4 4.1-2.3 3.5-4.9-.5-2.7-2.4-4.2-5.6-3.6l-2.5.5zm15 1.7l.2-3.4 2.3 2.6-2.5.8zm.4-5.4l-1.4.5-.5 8.4c0 .3 0 .5-.1.9l1.5-.5v-1l.1-1.8 3.3-1.1 1 1.3c.1.1.5.5.7.8l1.6-.5c-.4-.3-.6-.6-.8-.8l-5.4-6.2zm6-.8c-.2-.4-.3-.6-.6-1.5l-1.5.6c.4.7.4.9.6 1.4l2.3 5.2c.2.4.3.6.6 1.5l5.1-2.3-.4-1.5c-.6.6-1.8 1.1-2.7 1.6-.4.2-.6.2-1 .4l-2.4-5.4zm6.1-2.8c-.2-.4-.3-.6-.6-1.4l-1.5.7c.4.7.5.9.7 1.4l2.6 5c.2.4.3.6.6 1.4l4.9-2.6-.5-1.4c-.5.6-1.8 1.3-2.6 1.7-.4.2-.6.3-1 .4l-2.6-5.2z"/></svg>